<svg xmlns="http://www.w3.org/2000/svg" xmlns:xlink="http://www.w3.org/1999/xlink" version="1.1" style="" xml:space="preserve" width="22" height="35"><rect id="backgroundrect" width="100%" height="100%" x="0" y="0" fill="none" stroke="none" class="" style=""/>
















<g class="currentLayer" style=""><title>Layer 1</title><g id="XMLID_834_" class="">
	<path id="XMLID_835_" d="M5.387806547052592,18.48539462575751 h3.804538870651982 V34.148034358872735 c0,0.3092356422924806 0.2505681996562533,0.5598038419487337 0.5598038419487337,0.5598038419487337 h6.450731631543643 c0.3092356422924806,0 0.5598038419487337,-0.2505681996562533 0.5598038419487337,-0.5598038419487337 V18.559176772126357 h4.373635456377063 c0.2843803517099566,0 0.5236405137588457,-0.21339722455085738 0.5561091365918719,-0.4958742431981882 l0.6642632388563665,-5.766203493608733 c0.01824960524752873,-0.15864840880827102 -0.03202077975946756,-0.3175207391533216 -0.13815958819294744,-0.4365350359516228 c-0.10625076920186977,-0.11912625756669068 -0.2582934926751457,-0.18731036551604627 -0.4178375876305349,-0.18731036551604627 h-5.037786734465041 V8.058712187157186 c0,-1.0896021979690147 0.586674426362273,-1.6421285899724145 1.7439009284386942,-1.6421285899724145 c0.1649182118380969,0 3.293885806026347,0 3.293885806026347,0 c0.3092356422924806,0 0.5598038419487337,-0.25068016042464303 0.5598038419487337,-0.5598038419487337 V0.5639463903791544 c0,-0.3092356422924806 -0.2505681996562533,-0.5598038419487337 -0.5598038419487337,-0.5598038419487337 h-4.539449354362279 C17.229225255025767,0.002575097672964027 17.158130167098275,0 17.053334887885466,0 c-0.7876440056218681,0 -3.5254206750563433,0.1546178211462403 -5.688054877272689,2.1441606754320386 c-2.396184365077358,2.2047314511308915 -2.063101079117863,4.844542448224339 -1.9834969727927523,5.302238069401623 v4.226742928249716 H5.387806547052592 c-0.3092356422924806,0 -0.5598038419487337,0.2505681996562533 -0.5598038419487337,0.5598038419487337 v5.692533308008281 C4.828002705103858,18.23471446533287 5.078570904760127,18.48539462575751 5.387806547052592,18.48539462575751 z"/>
</g><g id="svg_1" class="">
</g><g id="svg_2" class="">
</g><g id="svg_3" class="">
</g><g id="svg_4" class="">
</g><g id="svg_5" class="">
</g><g id="svg_6" class="">
</g><g id="svg_7" class="">
</g><g id="svg_8" class="">
</g><g id="svg_9" class="">
</g><g id="svg_10" class="">
</g><g id="svg_11" class="">
</g><g id="svg_12" class="">
</g><g id="svg_13" class="">
</g><g id="svg_14" class="">
</g><g id="svg_15" class="">
</g></g></svg>